<?xml version="1.0" encoding="utf-8"?>
<!-- Generator: Adobe Illustrator 25.4.0, SVG Export Plug-In . SVG Version: 6.00 Build 0)  -->
<svg version="1.1" id="레이어_1" xmlns="http://www.w3.org/2000/svg" xmlns:xlink="http://www.w3.org/1999/xlink" x="0px"
	 y="0px" viewBox="0 0 160 39" style="enable-background:new 0 0 160 39;" xml:space="preserve">
<style type="text/css">
	.st0{opacity:0.75;}
	.st1{fill:#023459;}
</style>
<g>
	<g class="st0">
		<path d="M35.01,38.67c-5.39,0-7.01-1.93-7.01-7.1V6.91c0-3.01,2.25-4.58,4.67-4.58s4.67,1.57,4.67,4.58v22.59
			c0,1.08,0.27,1.3,1.3,1.3h9.97c2.65,0,3.64,2.02,3.64,3.86c0,1.84-1.03,4-3.64,4H35.01z"/>
		<path d="M56.34,30.81h16.17c2.65,0,3.64,2.02,3.64,3.86c0,1.84-1.03,4-3.64,4H56.34c-2.61,0-3.64-2.16-3.64-4
			C52.7,32.83,53.69,30.81,56.34,30.81z"/>
		<path d="M72.6,30.81h16.17c2.65,0,3.64,2.02,3.64,3.86c0,1.84-1.03,4-3.64,4H72.6c-2.61,0-3.64-2.16-3.64-4
			C68.96,32.83,69.95,30.81,72.6,30.81z"/>
		<path d="M97.62,6.1c3.01,0,4.81,1.8,4.81,4.54s-1.8,4.54-4.81,4.54s-4.81-1.75-4.81-4.54S94.61,6.1,97.62,6.1z M97.62,25.78
			c3.01,0,4.81,1.8,4.81,4.54c0,2.74-1.8,4.54-4.81,4.54s-4.81-1.75-4.81-4.54S94.61,25.78,97.62,25.78z"/>
		<path d="M118.05,2.51c7.77,0,15.95,4.13,15.95,16.62v2.92c0,12.49-8.18,16.62-15.95,16.62h-6.69c-5.39,0-7.01-1.93-7.01-7.1V9.61
			c0-5.17,1.62-7.1,7.01-7.1H118.05z M124.84,18.41c0-5.26-2.83-8.13-7.05-8.13h-2.96c-1.03,0-1.3,0.22-1.3,1.3V29.6
			c0,1.08,0.27,1.3,1.3,1.3h2.96c4.22,0,7.05-2.87,7.05-8.13V18.41z"/>
	</g>
	<g>
		<g>
			<path class="st1" d="M34.01,37.67c-5.39,0-7.01-1.93-7.01-7.1V5.91c0-3.01,2.25-4.58,4.67-4.58s4.67,1.57,4.67,4.58v22.59
				c0,1.08,0.27,1.3,1.3,1.3h9.97c2.65,0,3.64,2.02,3.64,3.86c0,1.84-1.03,4-3.64,4H34.01z"/>
			<path class="st1" d="M55.34,29.81h16.17c2.65,0,3.64,2.02,3.64,3.86c0,1.84-1.03,4-3.64,4H55.34c-2.61,0-3.64-2.16-3.64-4
				C51.7,31.83,52.69,29.81,55.34,29.81z"/>
			<path class="st1" d="M71.6,29.81h16.17c2.65,0,3.64,2.02,3.64,3.86c0,1.84-1.03,4-3.64,4H71.6c-2.61,0-3.64-2.16-3.64-4
				C67.96,31.83,68.95,29.81,71.6,29.81z"/>
			<path class="st1" d="M96.62,5.1c3.01,0,4.81,1.8,4.81,4.54s-1.8,4.54-4.81,4.54s-4.81-1.75-4.81-4.54S93.61,5.1,96.62,5.1z
				 M96.62,24.78c3.01,0,4.81,1.8,4.81,4.54c0,2.74-1.8,4.54-4.81,4.54s-4.81-1.75-4.81-4.54S93.61,24.78,96.62,24.78z"/>
			<path class="st1" d="M117.05,1.51c7.77,0,15.95,4.13,15.95,16.62v2.92c0,12.49-8.18,16.62-15.95,16.62h-6.69
				c-5.39,0-7.01-1.93-7.01-7.1V8.61c0-5.17,1.62-7.1,7.01-7.1H117.05z M123.84,17.41c0-5.26-2.83-8.13-7.05-8.13h-2.96
				c-1.03,0-1.3,0.22-1.3,1.3V28.6c0,1.08,0.27,1.3,1.3,1.3h2.96c4.22,0,7.05-2.87,7.05-8.13V17.41z"/>
		</g>
	</g>
</g>
</svg>
